<svg viewBox="0 0 340 340" xmlns="http://www.w3.org/2000/svg"><path d="M312.972 177.8a72.756 72.756 0 015.193-21.188 18.8 18.8 0 00-8.906-24.08l-13.955-7.01a3.461 3.461 0 00-4.116.766c-12.115 13.331-23.934 18.034-33.8 20.489a3.461 3.461 0 101.671 6.718c10.31-2.564 22.57-7.378 35.445-20.627l11.647 5.852a11.856 11.856 0 015.644 15.181 79.621 79.621 0 00-5.71 23.205 86.361 86.361 0 002.861 31.6c4.241 15.442 12.123 53.908-6.22 77.529-10.488 13.5-28.21 20.357-52.761 20.413v-4.714a12.542 12.542 0 00-9.066-12.03v-1.465c.854.022 1.734.035 2.645.035 13.837 0 33.793-2.795 44.638-17.209 9.652-12.829 10.122-32.073 1.387-57.222-.095-.269-9.394-27.124 1.766-48.3a3.463 3.463 0 00-5.57-4c-.135.141-12.166 12.372-37.031 14.469a12.419 12.419 0 001.231-5.378v-16.023a12.542 12.542 0 00-9.066-12.03v-34.523a12.3 12.3 0 00-2.988-8.035 12.941 12.941 0 005.132-8.988c1.308-12.02-4.74-20.216-16.664-22.774-2.636-7.895-10.79-19.774-27.363-19.774-14.414 0-22.2 7.1-26 12.391-11.854-15.853-31.763-13.487-41.522-9.544-1.1.377-9.034 3.336-11.672 11.555a3.461 3.461 0 106.591 2.117c1.657-5.163 7.189-7.077 7.319-7.12.044-.014.08-.038.122-.054s.08-.019.119-.034c1-.4 24.183-9.478 35.456 10.257-.655 2.393-1.536 7.005-.184 11.374a3.462 3.462 0 003.306 2.438 3.74 3.74 0 003.308-4.486c-.957-3.092.083-7.2.565-8.518v-.013l.007-.014c.2-.549 5.113-13.426 22.584-13.426 17.2 0 21.087 15.959 21.241 16.626a3.462 3.462 0 002.873 2.671c9.752 1.44 14.015 6.536 13.03 15.58a6.1 6.1 0 01-6.1 5.416H127.814a18.667 18.667 0 00.208-9.661 3.462 3.462 0 00-6.726 1.64 11.931 11.931 0 01-1.632 9.4c-3.448 4.583-8.67 6.9-15.527 6.9h-.403a3.462 3.462 0 00-3.136 2c-.1.215-10.319 21.455-33.694 17.255-22.646-4.079-21.01-22.911-20.932-23.695a3.446 3.446 0 00.019-.5c-.03-.865-.428-21.229 25.711-25.173a3.461 3.461 0 002.943-3.311c.035-1.072 1.112-26.266 24.12-28.378 9.354-.858 17.106.778 23.039 4.868a3.462 3.462 0 003.929-5.7c-7.3-5.033-16.589-7.075-27.6-6.062-21.394 1.966-28.868 20.554-30.197 32.22C40.1 73.323 39.092 96.542 39.071 99.23c-.184 2.666-.972 26.053 26.607 31.02a41.609 41.609 0 006.217.648v11.883a12.542 12.542 0 00-9.066 12.03v16.024a12.542 12.542 0 009.066 12.03v107.044a12.542 12.542 0 00-9.066 12.03v16.023a12.541 12.541 0 0012.528 12.527h162.079a12.541 12.541 0 0012.528-12.527v-4.371c26.775-.059 46.361-7.822 58.229-23.105 20.262-26.091 11.944-67.162 7.428-83.608a79.49 79.49 0 01-2.649-29.078zm-106.9 94.3a3.462 3.462 0 00-3.462 3.462v13.852h-25.95V183.362h25.945V240.1a3.462 3.462 0 006.923 0v-56.738h24.447v106.049h-24.447v-13.852a3.462 3.462 0 00-3.461-3.459zm-93.54 17.314v-69.788a3.462 3.462 0 10-6.924 0v69.785H78.819V183.362H105.6v15.518a3.462 3.462 0 006.924 0v-15.518h25.944v93.962a3.462 3.462 0 006.923 0v-93.962h24.342v106.049zm170.509-73.068c7.924 22.812 7.793 39.892-.387 50.765-9.782 13-29.372 14.755-41.751 14.412v-98.085c18.668.1 31.859-4.99 39.975-9.624-5.407 20.825 1.801 41.527 2.158 42.529zm-113.3-113.516v39.457h-24.347v-39.46zm6.924 0h25.945v39.457h-25.95zm32.868 0h19.047a5.438 5.438 0 015.395 5.431v34.026h-24.447zm-85.452 0h14.4v39.457h-25.954v-32.271a23.487 23.487 0 0011.549-7.189zm-18.481 8.553v30.9H78.819v-11.834c15.16-2.468 23.752-14.09 26.781-19.066zm-35.85 59.452v-16.024a5.61 5.61 0 015.6-5.6h162.086a5.61 5.61 0 015.6 5.6v16.024a5.61 5.61 0 01-5.6 5.6H75.357a5.61 5.61 0 01-5.604-5.6zm173.29 147.127a5.61 5.61 0 01-5.6 5.6H75.357a5.61 5.61 0 01-5.6-5.6v-16.023a5.61 5.61 0 015.6-5.6h162.079a5.61 5.61 0 015.6 5.6zM65.434 40.715A18.682 18.682 0 1046.752 59.4a18.7 18.7 0 0018.682-18.685zm-30.441 0a11.759 11.759 0 1111.759 11.76 11.771 11.771 0 01-11.759-11.76zM243.077 9.511a16.24 16.24 0 1016.239 16.239 16.258 16.258 0 00-16.239-16.239zm0 25.556a9.317 9.317 0 119.316-9.317 9.327 9.327 0 01-9.316 9.317z"/><path d="M209.528 257.362a3.462 3.462 0 10-6.923 0v2.807a3.462 3.462 0 006.923 0zm57.194-189.753a3.462 3.462 0 003.461-3.462v-3.614a3.462 3.462 0 10-6.923 0v3.614a3.462 3.462 0 003.462 3.462zm-3.462 19.085a3.462 3.462 0 106.923 0v-3.613a3.462 3.462 0 10-6.923 0zm16.54-9.618a3.462 3.462 0 000-6.924h-3.614a3.462 3.462 0 100 6.924zm-29.62-3.462a3.463 3.463 0 003.462 3.462h3.613a3.462 3.462 0 000-6.924h-3.613a3.463 3.463 0 00-3.462 3.462zM38.311 137.037l-2.556 2.556a3.474 3.474 0 000 4.9c1.51 1.543 4.219.676 4.895 0l2.556-2.556a3.461 3.461 0 00-4.9-4.895zM22.366 152.98l-2.555 2.556a3.463 3.463 0 000 4.9c1.366 1.365 4.22.675 4.9 0l2.555-2.556a3.462 3.462 0 00-4.9-4.9zm18.284 0a3.461 3.461 0 00-4.895 4.9l2.556 2.556c.676.676 3.5 1.366 4.9 0a3.447 3.447 0 000-4.9zm-15.942-15.943a3.462 3.462 0 10-4.9 4.895l2.555 2.556a4.025 4.025 0 004.9 0 3.386 3.386 0 000-4.9z"/><circle cx="89.22" cy="310.136" r="3.462"/><circle cx="156.397" cy="310.136" r="3.462"/><circle cx="224.401" cy="310.136" r="3.462"/><circle cx="89.22" cy="162.744" r="3.462"/><circle cx="156.397" cy="162.744" r="3.462"/><circle cx="224.401" cy="162.744" r="3.462"/></svg>