<svg viewBox="0 0 512 512" xmlns="http://www.w3.org/2000/svg"><linearGradient gradientUnits="userSpaceOnUse" id="a" x1="0" x2="512" y1="256" y2="256"><stop offset="0" stop-color="#e24263"/><stop offset="1" stop-color="#dd1e47"/></linearGradient><circle cx="256" cy="256" fill="url(#a)" r="256"/><linearGradient gradientUnits="userSpaceOnUse" id="b" x1="42.667" x2="469.333" y1="256.001" y2="256.001"><stop offset="0" stop-color="#dd1e47"/><stop offset="1" stop-color="#e24263"/></linearGradient><path d="M256 469.334c-117.631 0-213.333-95.702-213.333-213.333S138.369 42.667 256 42.667c117.636 0 213.333 95.703 213.333 213.334S373.636 469.334 256 469.334z" fill="url(#b)"/><path d="M264 144c-66.274 0-120 53.726-120 120 0 66.275 53.726 120 120 120s120-53.725 120-120c0-66.274-53.726-120-120-120zm45.99 182.61h-21.084v-51.076h-49.813v51.075h-21.082V201.391h21.082v51.076h49.813v-51.076h21.083V326.61z" opacity=".3"/><path d="M256 136c-66.274 0-120 53.726-120 120 0 66.275 53.726 120 120 120s120-53.725 120-120c0-66.274-53.726-120-120-120zm45.99 182.61h-21.084v-51.076h-49.813v51.075h-21.082V193.391h21.082v51.076h49.813v-51.076h21.083V318.61z" fill="#FFF"/></svg>