<svg viewBox="0 0 128 128" xmlns="http://www.w3.org/2000/svg"><circle cx="79" cy="49" fill="#FFF" r="45"/><path d="M79 95.2c-25.5 0-46.2-20.7-46.2-46.2S53.5 2.8 79 2.8s46.2 20.7 46.2 46.2S104.5 95.2 79 95.2zm0-90C54.9 5.2 35.2 24.9 35.2 49S54.9 92.8 79 92.8s43.8-19.6 43.8-43.8S103.1 5.2 79 5.2z" fill="#502D4B"/><path d="M104.8 29.6L59.6 74.8c-1.6 1.6-4.1 1.6-5.7 0l-.7-.7c-1.6-1.6-1.6-4.1 0-5.7l45.3-45.3c1.6-1.6 4.1-1.6 5.7 0l.7.7c1.5 1.7 1.5 4.2-.1 5.8z" fill="#502D4B" opacity=".2"/><path d="M56.7 77.2c-1.4 0-2.7-.5-3.7-1.5l-.7-.7c-2-2-2-5.4 0-7.4l45.3-45.3c1-1 2.3-1.5 3.7-1.5 1.4 0 2.7.5 3.7 1.5l.7.7c2 2 2 5.4 0 7.4L60.4 75.7c-1 1-2.3 1.5-3.7 1.5zm44.6-53.9c-.7 0-1.4.3-1.9.8L54.1 69.3c-1.1 1.1-1.1 2.8 0 3.9l.7.7c1 1 2.8 1 3.9 0L104 28.6c1.1-1.1 1.1-2.8 0-3.9l-.7-.7c-.6-.4-1.3-.7-2-.7z" fill="#502D4B"/><path d="M111.3 80.3c.6-.7 1.3-1.4 1.9-2.1l.1-.1c1.3-1.5 2.4-3 3.5-4.6v-.1c4.6-7 7.2-15.4 7.2-24.5 0-24.9-20.1-45-45-45-1.5 0-3 .1-4.5.2C97.2 6.5 115 25.7 115 49c0 6.5-1.4 12.7-3.9 18.3-3.8-1.4-7.9-2.3-12.1-2.3H36.9c5.9 15.6 20.3 27.1 37.6 28.8h.3c.5 0 1.1.1 1.6.1h.5c.7 0 1.4.1 2.1.1.9 0 1.9 0 2.8-.1.3 0 .5 0 .8-.1.7-.1 1.4-.1 2.1-.2.2 0 .5-.1.7-.1.9-.1 1.8-.3 2.7-.5.1 0 .2 0 .3-.1l2.4-.6c.2-.1.5-.1.7-.2.7-.2 1.4-.4 2.1-.7.2-.1.3-.1.5-.2.9-.3 1.7-.6 2.6-1 .1 0 .2-.1.3-.1.8-.3 1.5-.7 2.2-1 .2-.1.3-.2.5-.3.8-.4 1.5-.8 2.2-1.2 0 0 .1 0 .1-.1l2.4-1.5c.1 0 .1-.1.2-.1l2.1-1.5c.1-.1.2-.1.3-.2 1.5-1.2 2.9-2.4 4.3-3.9-.1.1 0 .1 0 0z" fill="#502D4B" opacity=".2"/><path d="M99 124H29c-13.8 0-25-11.2-25-25s11.2-25 25-25h70c13.8 0 25 11.2 25 25s-11.2 25-25 25z" fill="#E074A3"/><path d="M99 74H64v50h35c13.8 0 25-11.2 25-25s-11.2-25-25-25z" fill="#90D3EA"/><path d="M99 125.2H29c-14.5 0-26.2-11.8-26.2-26.2S14.5 72.8 29 72.8h70c14.5 0 26.2 11.8 26.2 26.2s-11.7 26.2-26.2 26.2zm-70-50C15.9 75.2 5.2 85.9 5.2 99s10.7 23.8 23.8 23.8h70c13.1 0 23.8-10.7 23.8-23.8S112.1 75.2 99 75.2H29z" fill="#502D4B"/><path d="M111 77c1.9 3.6 3 7.6 3 12 0 13.8-11.2 25-25 25H19c-4.3 0-8.4-1.1-12-3 4.2 7.8 12.5 13 22 13h70c13.8 0 25-11.2 25-25 0-9.5-5.3-17.7-13-22z" fill="#502D4B" opacity=".2"/><path fill="#502D4B" d="M62.8 74h2.5v50h-2.5z"/><path d="M13 101.5c-1.4 0-2.5-1.1-2.5-2.5 0-10.2 8.3-18.5 18.5-18.5h70c1.4 0 2.5 1.1 2.5 2.5s-1.1 2.5-2.5 2.5H29c-7.4 0-13.5 6.1-13.5 13.5 0 1.4-1.1 2.5-2.5 2.5z" fill="#FFF" opacity=".8"/></svg>