<svg viewBox="0 0 128 128" xmlns="http://www.w3.org/2000/svg"><path d="M105.2 25.7v76.7c0 8.3-6.7 15-15 15H37.8c-8.3 0-15-6.7-15-15V25.7c0-8.3 6.7-15 15-15h52.4c8.3 0 15 6.7 15 15z" fill="#FFF"/><path d="M89.8 51.9H37.4c-.7 0-1.2-.6-1.2-1.2s.6-1.2 1.2-1.2h52.4c.7 0 1.2.6 1.2 1.2s-.5 1.2-1.2 1.2zm0-10H37.4c-.7 0-1.2-.6-1.2-1.2s.6-1.2 1.2-1.2h52.4c.7 0 1.2.6 1.2 1.2s-.5 1.2-1.2 1.2zm0-10H37.4c-.7 0-1.2-.6-1.2-1.2s.6-1.2 1.2-1.2h52.4c.7 0 1.2.6 1.2 1.2s-.5 1.2-1.2 1.2z" fill="#502D4B"/><path d="M62.8 107.9c-2 0-3.9-1-5.1-2.6L45.1 87.6c-2-2.8-1.4-6.8 1.5-8.8 2.8-2 6.8-1.4 8.8 1.5l7.3 10.2 15.1-22.7c1.9-2.9 5.8-3.7 8.7-1.7 2.9 1.9 3.7 5.8 1.7 8.7L68 105.1c-1.1 1.7-3.1 2.8-5.1 2.8h-.1z" fill="#E074A3"/><path d="M62.8 109.2c-2.4 0-4.7-1.2-6.1-3.2L44 88.3c-1.2-1.6-1.6-3.6-1.3-5.6.3-2 1.4-3.7 3.1-4.9 1.3-.9 2.8-1.4 4.4-1.4 2.4 0 4.7 1.2 6.2 3.2l6.2 8.7 14.1-21.1c1.4-2.1 3.8-3.4 6.3-3.4 1.5 0 2.9.4 4.2 1.3 1.7 1.1 2.8 2.8 3.2 4.8.4 2 0 4-1.1 5.7l-20.2 30.3c-1.4 2.1-3.7 3.3-6.2 3.4l-.1-.1zM50.2 78.9c-1.1 0-2.1.3-2.9.9-1.1.8-1.8 1.9-2 3.3-.2 1.3.1 2.7.9 3.8l12.6 17.6c.9 1.3 2.5 2.1 4.1 2.1h.1c1.7 0 3.2-.9 4.1-2.2l20.2-30.3c.7-1.1 1-2.5.8-3.8s-1-2.5-2.2-3.2c-.8-.6-1.8-.8-2.8-.8-1.7 0-3.3.8-4.2 2.2L63.7 91.2c-.2.3-.6.5-1 .6-.4 0-.8-.2-1-.5L54.3 81c-1-1.3-2.5-2.1-4.1-2.1z" fill="#502D4B"/><path d="M90.2 118.6H37.8c-9 0-16.2-7.3-16.2-16.2V25.7c0-9 7.3-16.2 16.2-16.2h52.4c9 0 16.2 7.3 16.2 16.2v76.7c.1 8.9-7.2 16.2-16.2 16.2zM37.8 11.9c-7.6 0-13.8 6.2-13.8 13.8v76.7c0 7.6 6.2 13.8 13.8 13.8h52.4c7.6 0 13.8-6.2 13.8-13.8V25.7c0-7.6-6.2-13.8-13.8-13.8H37.8z" fill="#502D4B"/></svg>