<svg xmlns="http://www.w3.org/2000/svg" viewBox="0 0 332.99 417.74"><defs><style>.cls-1{fill:#ced0d0}.cls-2{fill:#3b525e}.cls-3{fill:#fff}.cls-4{fill:#d4f3f8}.cls-5{fill:#77c1d3}</style></defs><g id="Layer_2" data-name="Layer 2"><g id="Layer_1-2" data-name="Layer 1"><path class="cls-1" d="M58.91 26.14h214.15v329.2H58.91z"/><path class="cls-2" d="M277.28 377.74H54.69V36.55h222.59zm-210.59-12h198.59V48.55H66.69z"/><rect class="cls-3" x="6" y="79.47" width="319.97" height="329.2" rx="68.14" ry="68.14"/><path class="cls-1" d="M89 413.79H64.53a58.44 58.44 0 01-58.27-58.27V142.87a58.44 58.44 0 0158.27-58.28H89a27.43 27.43 0 00-27.35 27.35v274.5A27.43 27.43 0 0089 413.79z"/><rect class="cls-4" x="4.97" y="7.52" width="320.99" height="57.96" rx="15.09" ry="15.09"/><path class="cls-5" d="M94.29 61.5H24.55A15.48 15.48 0 019.08 46V19A15.48 15.48 0 0124.55 3.54h69.74A15.48 15.48 0 0078.81 19v27a15.48 15.48 0 0015.48 15.5z"/><path class="cls-2" d="M311.9 70H21.09A21.12 21.12 0 010 48.87V21.09A21.12 21.12 0 0121.09 0H311.9A21.12 21.12 0 01333 21.09v27.78A21.12 21.12 0 01311.9 70zM21.09 12A9.1 9.1 0 0012 21.09v27.78A9.1 9.1 0 0021.09 58H311.9a9.1 9.1 0 009.1-9.13V21.09a9.1 9.1 0 00-9.1-9.09z"/><path class="cls-4" d="M10.45 129.72h311.51v231.77H9.52l.93-231.77z"/><path class="cls-5" d="M9.33 129.72h49.23v231.77H9.33z"/><text transform="translate(54.44 296.64)" font-size="84.19" font-family="Dosis-ExtraBold,Dosis" font-weight="700" fill="#3b525e">WHEY</text><path class="cls-2" d="M6.8 356.63h318.88v12H6.8zm0-234.84h318.88v12H6.8z"/><path class="cls-3" d="M271.21 24.86h36.55c3.86 0 3.87-6 0-6h-36.55c-3.86 0-3.87 6 0 6zm-72.15 0h57.53c3.86 0 3.87-6 0-6h-57.53c-3.86 0-3.87 6 0 6zm96.47 193.42v36.55c0 3.86 6 3.87 6 0v-36.55c0-3.86-6-3.87-6 0zm0-72.15v57.53c0 3.86 6 3.87 6 0v-57.53c0-3.86-6-3.87-6 0z"/><path class="cls-2" d="M258.56 417.74H73.41A73.49 73.49 0 010 344.33V150a73.49 73.49 0 0173.41-73.46h185.15A73.49 73.49 0 01332 150v194.33a73.49 73.49 0 01-73.44 73.41zM73.41 88.54A61.48 61.48 0 0012 150v194.33a61.48 61.48 0 0061.41 61.41h185.15A61.48 61.48 0 00320 344.33V150a61.48 61.48 0 00-61.41-61.41z"/></g></g></svg>