<svg viewBox="0 0 128 128" xmlns="http://www.w3.org/2000/svg"><path d="M115.7 109.1L80.3 45.8c-.8-1.5-1.3-3.2-1.3-4.9V14h2.5c2.8 0 5-2.2 5-5s-2.2-5-5-5h-35c-2.8 0-5 2.2-5 5s2.2 5 5 5H49v26.9c0 1.7-.4 3.4-1.3 4.9l-35.4 63.3C8.6 115.8 13.4 124 21 124h86c7.6 0 12.4-8.2 8.7-14.9z" fill="#FFF"/><path fill="#502D4B" opacity=".2" d="M49 14h30v6H49z"/><path d="M12.3 109.1C8.6 115.8 13.4 124 21 124h86c7.6 0 12.5-8.2 8.7-14.9L90.5 64h-53l-25.2 45.1z" fill="#90D3EA"/><path d="M107 125.2H21c-4 0-7.7-2.1-9.7-5.6-2-3.5-2.1-7.7-.1-11.2l35.4-63.3c.7-1.3 1.1-2.8 1.1-4.3V15.2h-1.2c-3.4 0-6.2-2.8-6.2-6.2s2.8-6.2 6.2-6.2h35c3.4 0 6.2 2.8 6.2 6.2s-2.8 6.2-6.2 6.2h-1.2v25.6c0 1.5.4 3 1.1 4.3l35.4 63.3c2 3.5 1.9 7.7-.1 11.2-2.1 3.6-5.7 5.6-9.7 5.6zM46.5 5.2c-2.1 0-3.8 1.7-3.8 3.8s1.7 3.8 3.8 3.8H49c.7 0 1.2.6 1.2 1.2v26.9c0 1.9-.5 3.8-1.4 5.5l-35.4 63.3c-1.5 2.7-1.5 6 .1 8.7 1.6 2.7 4.4 4.3 7.5 4.3h86c3.1 0 6-1.6 7.5-4.3 1.6-2.7 1.6-6 .1-8.7L79.2 46.4c-.9-1.7-1.4-3.6-1.4-5.5V14c0-.7.6-1.2 1.2-1.2h2.5c2.1 0 3.8-1.7 3.8-3.8s-1.7-3.8-3.8-3.8h-35z" fill="#502D4B"/><path d="M17.6 114.5c-.4 0-.8-.1-1.2-.3-1.2-.7-1.6-2.2-1-3.4l35.4-63.3c1.1-2 1.7-4.3 1.7-6.6V19c0-1.4 1.1-2.5 2.5-2.5s2.5 1.1 2.5 2.5v21.9c0 3.2-.8 6.3-2.4 9l-35.4 63.3c-.4.9-1.3 1.3-2.1 1.3z" fill="#FFF" opacity=".8"/><circle cx="62.5" cy="72" fill="#FFF" r="6"/><circle cx="72.5" cy="89.5" fill="#FFF" r="5.5"/><circle cx="62.5" cy="108.5" fill="#FFF" r="2.5"/><circle cx="70.5" cy="118.5" fill="#FFF" r="1.5"/><path d="M79 15.2H49c-.7 0-1.2-.6-1.2-1.2s.6-1.2 1.2-1.2h30c.7 0 1.2.6 1.2 1.2s-.5 1.2-1.2 1.2z" fill="#502D4B"/></svg>