<svg viewBox="0 0 64 64" xmlns="http://www.w3.org/2000/svg"><defs><style>.cls-5{fill:#d6ebf2}.cls-6{fill:#bdd5db}</style></defs><g id="Outline"><path d="M36.13 15.75h13v39a2 2 0 01-2 2h-9a2 2 0 01-2-2v-39z" fill="#ffc32e"/><path d="M41.13 50.75a2 2 0 002 2h6v-37h-8z" fill="#ffd473"/><path fill="#f6921e" d="M36.13 21.75h13v28h-13z"/><path fill="#f99b3e" d="M41.13 21.75h8v28h-8z"/><rect class="cls-5" height="8.5" rx="2" ry="2" width="17" x="34.13" y="7.25"/><path class="cls-6" d="M34.13 10.75v3a2 2 0 002 2h13a2 2 0 002-2v-3z"/><path d="M36.87 29.75h-2v-3h-18v3h-2a2 2 0 00-2 2v21a4 4 0 004 4h18a4 4 0 004-4v-21a2 2 0 00-2-2z" fill="#b6d99e"/><path d="M36.88 29.75h-2v-3H20.13v22.69a4.31 4.31 0 004.31 4.31h14.3c0-.12.06-.25.08-.38a4 4 0 00.06-.62v-21a2 2 0 00-2-2z" fill="#c8e8af"/><path d="M38.87 48.55s-5.62.2-13.62.2-12.38-.2-12.38-.2v-12.8s5.38.2 12.38.2 13.62-.2 13.62-.2z" fill="#7ec04f"/><path d="M20.13 35.91v12.81h5.13c8 0 13.62-.2 13.62-.2V35.75s-6.62.2-13.62.2c-1.85 0-3.58-.02-5.13-.04z" fill="#94d363"/><rect class="cls-5" height="9" rx="2" ry="2" width="22" x="14.87" y="17.75"/><path d="M28.13 40.81h-.81V40a1 1 0 00-1-1h-.89a1 1 0 00-1 1v.81h-.81a1 1 0 00-1 1v.89a1 1 0 001 1h.81v.81a1 1 0 001 1h.89a1 1 0 001-1v-.81h.81a1 1 0 001-1v-.89a1 1 0 00-1-1z" fill="#fff"/><path class="cls-6" d="M14.88 21.75v3a2 2 0 002 2h18a2 2 0 002-2v-3z"/><path fill="none" d="M0 0h64v64H0z"/></g></svg>